<?xml version="1.0" encoding="utf-8"?>
<svg viewBox="0 0 219 60" fill="none" xmlns="http://www.w3.org/2000/svg">
  <path fill="#00FFA4" d="M 11.254 44.551 L 0.214 25.333 L 0.214 20.804 L 3.894 20.804 C 6.061 20.804 7.881 20.335 9.353 19.397 C 10.825 18.417 11.765 17.071 12.174 15.357 L 0.214 15.357 L 0.214 10.828 L 12.113 10.828 C 11.745 9.278 10.988 7.992 9.843 6.972 C 8.698 5.911 7.104 5.381 5.059 5.381 L 0.214 5.381 L 0.214 0.852 L 27.876 0.852 L 27.876 5.381 L 18.246 5.381 C 19.677 6.931 20.577 8.747 20.945 10.828 L 27.876 10.828 L 27.876 15.357 L 21.068 15.357 C 20.659 18.377 19.493 20.743 17.572 22.457 C 15.65 24.13 13.176 25.272 10.15 25.884 L 22.172 44.551 L 11.254 44.551 Z" style=""/>
  <text style="fill: rgb(255, 248, 248); font-family: Arial, sans-serif; font-size: 4.3px; white-space: pre;" transform="matrix(15.041378, -0.011552, -0.028018, 13.898201, -572.669442, -40.831036)" x="40.161" y="6.138">15000</text>
</svg>