<svg width="374" height="220" viewBox="0 0 374 220" fill="none" xmlns="http://www.w3.org/2000/svg">
<rect width="374" height="220" fill="white"/>
<path fill-rule="evenodd" clip-rule="evenodd" d="M108.725 108.28H130.454V87H87.395V87.1952L108.725 108.28Z" fill="#67DBFF"/>
<path fill-rule="evenodd" clip-rule="evenodd" d="M108.729 108.28H87V129.56H130.059V129.364L108.729 108.28V108.28Z" fill="#01A3FF"/>
<path fill-rule="evenodd" clip-rule="evenodd" d="M87 129.559H108.529V151.036L87 129.559Z" fill="#0162FF"/>
<path d="M160.04 129.502V117.831H173.002V112.319H160.04V104.572H174.045V99.0096H153.733V129.502H160.04Z" fill="#191D26"/>
<path d="M190.247 107.204C189.9 107.005 188.956 106.807 187.913 106.807C185.728 106.807 183.89 107.899 182.947 109.488V107.303H176.789V129.502H182.947V115.746C183.394 113.709 185.082 112.617 187.168 112.617C188.31 112.617 189.403 112.865 190.247 113.362V107.204Z" fill="#191D26"/>
<path d="M210.753 129.502V115.348C210.753 110.035 207.326 106.807 201.417 106.807C196.351 106.807 192.726 109.886 192.08 113.908H197.94C198.437 112.617 199.48 111.822 201.218 111.822C203.701 111.822 204.843 113.362 204.843 115.249V116.888C203.949 116.242 201.715 115.597 199.778 115.597C194.961 115.597 191.186 118.477 191.186 122.698C191.186 127.317 194.961 129.899 199.43 129.899C201.864 129.899 204.098 129.055 204.843 128.31V129.502H210.753ZM204.843 123.443C204.297 124.635 202.609 125.38 200.821 125.38C198.884 125.38 196.898 124.585 196.898 122.649C196.898 120.761 198.884 119.917 200.821 119.917C202.609 119.917 204.297 120.662 204.843 121.854V123.443Z" fill="#191D26"/>
<path d="M232.494 109.637C231.252 107.998 229.166 106.807 226.534 106.807C224.051 106.807 222.015 107.75 220.923 109.141V107.303H214.764V129.502H220.923V115.199C221.32 113.312 222.81 112.319 224.399 112.319C226.534 112.319 227.528 113.908 227.528 116.292V129.502H233.735V115.199C234.133 113.312 235.573 112.319 237.162 112.319C239.297 112.319 240.34 113.908 240.34 116.292V129.502H246.498V115.001C246.498 109.985 243.767 106.807 239.198 106.807C236.069 106.807 233.934 108.048 232.494 109.637Z" fill="#191D26"/>
<path d="M264.137 122.251C263.641 124.138 262.101 125.032 260.016 125.032C257.284 125.032 255.397 123.046 255.198 119.719H269.998V117.831C269.998 111.326 266.422 106.807 259.916 106.807C253.709 106.807 249.239 111.723 249.239 118.427C249.239 125.281 253.56 129.999 260.016 129.999C265.578 129.999 269.054 126.969 269.849 122.251H264.137ZM259.966 111.822C262.499 111.822 263.889 113.66 263.939 115.994H255.347C255.894 113.263 257.582 111.822 259.966 111.822Z" fill="#191D26"/>
<path d="M286.373 107.204C286.026 107.005 285.082 106.807 284.039 106.807C281.854 106.807 280.017 107.899 279.073 109.488V107.303H272.915V129.502H279.073V115.746C279.52 113.709 281.209 112.617 283.294 112.617C284.437 112.617 285.529 112.865 286.373 113.362V107.204Z" fill="#191D26"/>
</svg>
